<?xml version="1.0" standalone="no"?>
<!DOCTYPE svg PUBLIC "-//W3C//DTD SVG 20010904//EN"
 "http://www.w3.org/TR/2001/REC-SVG-20010904/DTD/svg10.dtd">
<svg version="1.0" xmlns="http://www.w3.org/2000/svg"
 width="454.000000pt" height="111.000000pt" viewBox="0 0 454.000000 111.000000"
 preserveAspectRatio="xMidYMid meet">

<g transform="translate(0.000000,111.000000) scale(0.100000,-0.100000)"
fill="#000000" stroke="none">
<path d="M3062 1074 c-88 -19 -188 -74 -252 -139 l-54 -55 290 0 290 0 29 30
c16 17 36 30 45 30 9 0 29 -13 45 -30 25 -26 36 -30 82 -30 29 0 53 4 53 9 0
19 -117 113 -175 142 -68 33 -178 59 -245 58 -25 -1 -73 -7 -108 -15z"/>
<path d="M4074 1062 c-66 -23 -97 -43 -127 -84 -71 -96 -62 -217 22 -310 37
-41 69 -62 186 -118 161 -78 200 -107 227 -168 30 -67 18 -125 -35 -178 -100
-99 -264 -73 -348 55 -18 28 -34 51 -36 51 -3 0 -24 -14 -49 -30 l-44 -31 16
-31 c9 -18 38 -53 65 -79 67 -65 138 -91 251 -92 80 -1 91 1 154 33 120 61
178 172 154 294 -23 118 -78 170 -285 271 -164 80 -205 119 -205 194 0 86 67
141 169 141 68 0 98 -13 152 -67 l47 -45 41 27 c22 15 41 32 41 38 0 6 -24 34
-53 62 -41 40 -66 55 -113 68 -77 22 -165 21 -230 -1z"/>
<path d="M266 572 c-126 -262 -230 -483 -233 -489 -4 -10 11 -13 55 -13 l60 0
34 83 c19 45 43 103 54 129 l19 48 241 0 242 0 53 -130 53 -130 59 0 c53 0 58
2 52 19 -6 19 -453 952 -458 958 -2 1 -106 -212 -231 -475z m333 59 c50 -106
91 -195 91 -197 0 -2 -88 -4 -195 -4 -107 0 -195 2 -195 4 0 2 30 66 66 142
37 77 79 168 95 203 17 37 33 60 38 55 5 -5 50 -96 100 -203z"/>
<path d="M1140 561 l0 -491 55 0 55 0 0 209 0 209 138 5 c156 5 207 19 270 73
107 91 110 303 6 408 -62 62 -98 71 -321 74 l-203 3 0 -490z m373 375 c75 -27
109 -78 110 -166 0 -73 -24 -117 -84 -150 -40 -22 -55 -25 -164 -25 l-120 0
-3 178 -2 177 112 0 c69 -1 128 -6 151 -14z"/>
<path d="M1820 1000 l0 -50 170 0 170 0 0 -440 0 -440 60 0 60 0 0 440 0 440
170 0 170 0 0 50 0 50 -400 0 -400 0 0 -50z"/>
<path d="M3242 768 l-32 -33 -265 0 -266 0 -8 -35 c-5 -19 -12 -47 -15 -62
l-6 -28 248 0 248 0 29 30 c16 17 36 30 45 30 9 0 29 -13 45 -30 l29 -30 204
0 204 0 -7 46 c-11 79 -1 74 -171 74 l-154 0 -39 35 c-21 19 -42 35 -47 35 -5
0 -24 -15 -42 -32z"/>
<path d="M3056 498 l-25 -33 -186 -3 c-211 -4 -193 6 -158 -89 l16 -43 124 0
124 0 35 35 c19 19 41 35 48 35 8 0 27 -15 42 -32 l27 -33 274 -3 274 -3 15
36 c8 20 17 49 21 66 l6 29 -257 0 -256 0 -39 35 c-21 19 -43 35 -49 35 -6 0
-22 -15 -36 -32z"/>
<path d="M2842 230 l-43 -39 50 -39 c99 -78 198 -112 332 -112 129 0 248 43
344 125 l40 35 -301 0 -300 0 -34 35 c-19 19 -36 35 -39 35 -4 -1 -25 -18 -49
-40z"/>
</g>
</svg>
